<svg xmlns="http://www.w3.org/2000/svg" viewBox="0 0 563.02 54.49"><defs><style>.cls-1{fill:#fff;}</style></defs><g id="Layer_2" data-name="Layer 2"><g id="Layer_1-2" data-name="Layer 1"><polygon class="cls-1" points="64.24 17.47 70.5 11.58 60.87 11.58 55.49 0.68 50.09 11.58 40.47 11.58 46.73 17.47 64.24 17.47"/><rect class="cls-1" y="49.86" width="110.22" height="4.63"/><path class="cls-1" d="M49.85,22.94c-.05,8.9-6.59,15.65-14.44,16H.42v5l35.22,0c10.59-.35,19.52-9.43,19.58-21Z"/><path class="cls-1" d="M77.25,38.92a15.69,15.69,0,0,1-15.35-16H56.44A20.94,20.94,0,0,0,77,44l32.83,0V38.92Z"/><path class="cls-1" d="M167.83,37.78c1.95-.78,2.88-.49,3.67,1.17l3,6.5c.64,1.73.35,2.37-1.31,3.45q-5.85,3.85-15.14,3.81c-15.41-.08-24.45-8.4-24.36-26.47S142.6-.07,157.93,0c6.12,0,11,1.28,14.89,3.89,1.65,1.09,1.94,1.74,1.28,3.46l-3,6.4c-.66,1.65-1.74,1.93-3.68,1.13a18,18,0,0,0-6.91-1.33c-7.92,0-10.89,3.33-10.93,12.76s3.1,12.84,11.09,12.88A19,19,0,0,0,167.83,37.78Z"/><path class="cls-1" d="M209.55,1.12a3.08,3.08,0,0,1,3.09,2.32l14.68,45.65c.64,1.8-.23,3.09-2,3.09l-10.94-.06a3,3,0,0,1-3.16-2.39l-1.56-5.55L196,44.11l-1.54,5.54A3,3,0,0,1,191.23,52l-10.94,0c-1.73,0-2.59-1.31-1.93-3.11L193.48,3.34a3.1,3.1,0,0,1,3.11-2.29Zm-2.38,30.23-4-14.85h-.21l-4.47,14.82Z"/><path class="cls-1" d="M256.37,41.82l-9.14-15.53-.12,23.4a2.28,2.28,0,0,1-2.6,2.58l-9.94-.05a2.29,2.29,0,0,1-2.58-2.6l.23-45.8a2.29,2.29,0,0,1,2.6-2.58l9.58.05a3.23,3.23,0,0,1,2.94,1.45l11,19.14,11.18-19a3.23,3.23,0,0,1,3-1.42l9.58,0a2.29,2.29,0,0,1,2.58,2.61l-.23,45.79a2.29,2.29,0,0,1-2.6,2.58l-9.94-.05a2.28,2.28,0,0,1-2.58-2.6l.12-23.4-9.3,15.43A2.16,2.16,0,0,1,256.37,41.82Z"/><path class="cls-1" d="M294.47,52.51a2.29,2.29,0,0,1-2.58-2.6l.23-45.8a2.29,2.29,0,0,1,2.6-2.57l18.08.08c14.47.07,21.65,5.51,21.58,18.83s-7.29,18.69-21.77,18.62l-5.11,0-.05,11a2.3,2.3,0,0,1-2.61,2.58Zm18-26.4c4.47,0,6.2-1.56,6.22-5.74s-1.7-5.76-6.16-5.79l-4.9,0-.05,11.52Z"/><path class="cls-1" d="M361.36,53.63c-14.19-.06-21.28-6.72-21.22-20.05l.15-29.23a2.29,2.29,0,0,1,2.6-2.58l10.51.05A2.29,2.29,0,0,1,356,4.43l-.13,27.72c0,5.4,1.54,7.64,5.58,7.66s5.62-2.2,5.65-7.53l.14-27.8a2.29,2.29,0,0,1,2.6-2.58L380.33,2a2.28,2.28,0,0,1,2.58,2.6l-.14,29.23C382.71,47.12,375.54,53.7,361.36,53.63Z"/><path class="cls-1" d="M417.74,52.4a30.38,30.38,0,0,1-9.94,1.46c-7.27,0-13.1-1.29-17.63-3.68a2.39,2.39,0,0,1-1.35-3.25l2.56-6.68c.65-1.66,1.81-2.16,3.31-1.5A27,27,0,0,0,404.91,41c4.89,0,7.28-1,7.29-3,0-1.73-2-2.75-7.18-4.5a34,34,0,0,1-8.84-3.93A12.93,12.93,0,0,1,390.24,22a16.68,16.68,0,0,1-.91-5.91c.05-10,6.56-14.87,19.73-14.81,6.34,0,11.52,1.14,15.54,3.39A2.42,2.42,0,0,1,426,7.94l-2.48,6.32a2.41,2.41,0,0,1-3.32,1.5,30,30,0,0,0-9.49-1.56c-3.68,0-5.62.48-5.63,2.57,0,1.72,1.93,2.81,7.1,4.78,3.09,1.17,3.38,1.24,6,2.34a21.91,21.91,0,0,1,5,3.05c1.94,1.37,2.44,2.6,3.51,4.4a13.65,13.65,0,0,1,1.26,6.78C427.86,45.54,423.58,50.48,417.74,52.4Z"/><path class="cls-1" d="M466.05,54c-5.77,0-10.37-.77-13.82-2.3-.65-.29-.86-.65-.71-1.08l.87-2.3c.22-.57.58-.72,1.08-.5A33.46,33.46,0,0,0,465.92,50c8.5,0,13.48-3.39,13.51-9.15a7.93,7.93,0,0,0-3.64-7.15,39.8,39.8,0,0,0-8-4.14,1.64,1.64,0,0,1-.79-.36c-.15-.08-.29-.08-.43-.15a48.17,48.17,0,0,1-7.9-3.85,9.88,9.88,0,0,1-5.09-6,11.62,11.62,0,0,1-.84-4.61c0-7.92,5.25-12.5,16.55-12.45a31,31,0,0,1,12,2.15c.57.22.78.51.64,1L481,7.49c-.14.57-.5.72-1.15.5a27.86,27.86,0,0,0-10.36-1.78c-8.28,0-12.33,2.75-12.36,8.36a9.1,9.1,0,0,0,.92,4,9.64,9.64,0,0,0,2.51,2.82,20.2,20.2,0,0,0,3.73,2c.79.37,3.67,1.61,4.46,2,3,1.24,2.15.95,4.88,2.11a24,24,0,0,1,4.53,2.55c2,1.37,2.08,1.88,3.44,3.32s1.5,2.75,2,4.62a13.48,13.48,0,0,1,.27,3C483.85,49.27,477.21,54.06,466.05,54Z"/><path class="cls-1" d="M498.47,49.34l22.75.11c.65,0,.93.29.93.87v2.37c0,.65-.29.94-.94.94l-26.28-.13c-.65,0-.94-.3-.93-.94l.23-48.68c0-.57.3-.86.94-.86h2.6c.64,0,.93.3.93.87Z"/><path class="cls-1" d="M560.83,47.92c.5-.29.93-.07,1.22.58l.92,2.16c.15.36-.07.72-.65,1a24.44,24.44,0,0,1-12.4,2.82c-14.47-.07-22.27-9.4-22.19-26.11.08-16.56,7.9-25.95,22.09-25.88,5,0,9,1,12.15,2.87.65.29.86.65.65,1l-.88,2.15a.77.77,0,0,1-1.23.5,21.5,21.5,0,0,0-10.14-2.35c-11.88-.06-18,7.47-18,21.73s5.94,21.92,18.11,22A22.2,22.2,0,0,0,560.83,47.92Z"/></g></g></svg>